# xmcd CD database file
# Copyright (C) 1993-1996 Ti Kan
#
# Track frame offsets:
# 182
# 34285
# 69872
# 92460
# 130497
# 158070
# 200170
# 251852
# 297620
# 321765
#
# Disc length: 4771 seconds
#
# Revision: 0
# Processed by: cddbd v1.4b41PL1 Copyright (c) Steve Scherf et al.
# Submitted via: inCDius 1.1b5
#
DISCID=9712a10a
DTITLE=Rory Gallagher - Irish Tour 74
DYEAR=1900
DGENRE=
TTITLE0=Cradle Rock
TTITLE1=I Wonder Who (Who's Gonna Be Your Sweet Man)
TTITLE2=Tatto'd Lady
TTITLE3=Too Much Alcohol
TTITLE4=As The Crow
TTITLE5=A Million Miles Away
TTITLE6=Walk On Hot Coals
TTITLE7=Who's That Comin'
TTITLE8=Back On My (Stompin' Ground)
TTITLE9=Just A little Bit
EXTD=
EXTT0=
EXTT1=
EXTT2=
EXTT3=
EXTT4=
EXTT5=
EXTT6=
EXTT7=
EXTT8=
EXTT9=
PLAYORDER=
